<?xml version="1.0" encoding="utf-8"?>
<!-- Generator: Adobe Illustrator 26.5.0, SVG Export Plug-In . SVG Version: 6.00 Build 0)  -->
<svg version="1.1" xmlns="http://www.w3.org/2000/svg" xmlns:xlink="http://www.w3.org/1999/xlink" x="0px" y="0px"
	 viewBox="0 0 2555.6 1573.8" style="enable-background:new 0 0 2555.6 1573.8;" xml:space="preserve">
<style type="text/css">
	.st0{fill:url(#SVGID_1_);}
	.st1{fill:#FFFFFF;}
	.st2{fill:url(#SVGID_00000085967171955770490910000014604585397800419001_);}
	.st3{fill:url(#SVGID_00000167374482352159890620000001993012915202360469_);}
	.st4{fill:url(#SVGID_00000048499033453055058910000013943404868891153554_);}
	.st5{fill:url(#SVGID_00000153702747340503274440000014866142151187564189_);}
	.st6{fill:url(#SVGID_00000068679246852862879700000007057533057358048138_);}
	.st7{fill:#9C9B9B;}
	.st8{fill:url(#SVGID_00000157271915258713760510000004647003716155128716_);}
	.st9{fill:url(#SVGID_00000158748482230376060850000000939796657942030977_);}
	.st10{fill:url(#SVGID_00000089551544680334545640000018331143948995161526_);}
</style>
<g id="BACKGROUND">
</g>
<g id="ELEMENTS">
</g>
<g id="LOGO">
	<g>
		<g>
			<g>
				<path class="st1" d="M1276.6,986.4v-26.5c0-1.5-0.2-2.7-0.6-3.6s-1.4-1.4-2.9-1.4h-0.5v-1.5h22.1c1.2,0,2.1,0.2,2.7,0.6
					c0.6,0.4,1,0.9,1.3,1.5c0.2,0.6,0.3,1.3,0.3,1.9v4.3h-1.5c0-2.1-0.5-3.7-1.6-4.6c-1.1-0.9-2.6-1.4-4.6-1.4h-8.1v12.5h13v2.3h-13
					v13.8h8.6c1.8,0,3.4-0.4,4.7-1.2c1.3-0.8,2.4-2.3,3.2-4.5l1.4,0.5l-1.5,4c-0.4,1.1-0.8,1.9-1.4,2.6c-0.6,0.6-1.6,1-2.9,1H1276.6
					z"/>
				<path class="st1" d="M1319.3,986.4v-26.5c0-1.5-0.2-2.7-0.6-3.6s-1.4-1.4-2.9-1.4h-0.5v-1.5h13.6c6.9,0,12,1.5,15.5,4.4
					c3.5,2.9,5.2,6.9,5.2,12c0,3.3-0.7,6.2-2.2,8.7c-1.5,2.5-3.7,4.5-6.5,5.9s-6.4,2.1-10.6,2.1H1319.3z M1330.1,984.4
					c2.3,0,4.4-0.6,6.2-1.8c1.8-1.2,3.2-2.8,4.3-5c1-2.2,1.6-4.8,1.6-7.8c0-2.9-0.5-5.5-1.5-7.7c-1-2.2-2.4-3.9-4.3-5.1
					c-1.8-1.2-3.9-1.8-6.3-1.8c-0.7,0-1.4,0-1.9,0c-0.5,0-1.3,0.1-2.3,0.3v28.3c0.7,0.1,1.3,0.2,1.7,0.3c0.4,0,0.8,0.1,1.2,0.1
					S1329.6,984.4,1330.1,984.4z"/>
				<path class="st1" d="M1381.9,986.9c-3,0-5.5-0.6-7.5-1.7c-2-1.1-3.5-2.8-4.5-5s-1.5-5-1.5-8.3v-12.1c0-1.4-0.2-2.6-0.6-3.5
					c-0.4-0.9-1.2-1.4-2.5-1.5h-0.5v-1.5h5.5c1.2,0,2.1,0.2,2.7,0.6c0.7,0.4,1.1,1.1,1.4,2c0.3,0.9,0.4,2.2,0.4,3.9l0,13.6
					c0,3.5,0.7,6.2,2,8.2c1.3,2,3.3,3,5.9,3c2.3,0,4.1-0.5,5.6-1.4c1.4-0.9,2.5-2.3,3.2-4.2c0.7-1.9,1-4.3,1-7.2v-18.6h2.5V972
					c0,3.1-0.4,5.8-1.3,8c-0.9,2.2-2.2,3.9-4.2,5.1C1387.8,986.3,1385.2,986.9,1381.9,986.9z"/>
				<path class="st1" d="M1429.6,987.4c-3.5,0-6.5-0.8-9-2.3c-2.5-1.5-4.3-3.5-5.6-6.1c-1.3-2.6-1.9-5.5-1.9-8.7
					c0-2.5,0.4-4.9,1.2-7.1c0.8-2.2,2-4.1,3.5-5.7s3.3-2.9,5.3-3.8c2-0.9,4.2-1.4,6.6-1.4c3.1,0,5.7,0.4,7.6,1.2
					c1.9,0.8,3.3,1.8,4.3,2.8c0.7,0.9,1.1,2,1.2,3.4c0.1,1.4,0.2,2.8,0.2,4.3h-1.5c-0.6-3-1.8-5.4-3.5-7s-3.9-2.4-6.7-2.4
					c-2,0-3.9,0.5-5.6,1.4c-1.7,0.9-3,2.5-4,4.8c-1,2.3-1.5,5.5-1.5,9.5c0,1.9,0.2,3.7,0.6,5.5s1,3.4,1.9,4.8c0.9,1.4,2,2.5,3.4,3.3
					c1.4,0.8,3.1,1.2,5.1,1.2c2.3,0,4.4-0.6,6.4-1.8c2-1.2,3.6-3,4.8-5.3l1.8,1.4c-1.6,2.8-3.5,4.8-5.8,6.1
					C1436,986.8,1433.1,987.4,1429.6,987.4z"/>
				<path class="st1" d="M1489.4,986.6c-1.1,0-2.3-0.1-3.5-0.4s-2.4-0.9-3.5-1.8c-1.1-0.9-2.1-2.4-2.9-4.3l-1.2-2.8H1465l-4.1,9.1
					h-2.6l14.8-33h2.3l11.2,26.7c0.6,1.5,1.3,2.6,2.2,3.5c0.9,0.9,1.9,1.4,3,1.5v1.3c-0.3,0.1-0.6,0.1-1.1,0.2
					S1489.7,986.6,1489.4,986.6z M1466.1,975h11.3l-5.5-13.1L1466.1,975z"/>
				<path class="st1" d="M1511.7,986.4v-30.8h-3.6c-1.8,0-3.2,0.4-4.2,1.3c-1,0.9-1.6,2.4-1.6,4.7h-1.5v-4.3c0-0.7,0.1-1.3,0.4-1.9
					c0.2-0.6,0.7-1.1,1.3-1.5c0.6-0.4,1.5-0.6,2.6-0.6h23.5v2.3h-10.5v30.8H1511.7z"/>
				<path class="st1" d="M1550.1,986.4c-1.2,0-2.1-0.2-2.7-0.6c-0.7-0.4-1.1-1.1-1.4-2c-0.3-1-0.4-2.3-0.4-3.9v-26.5h6.5v26.5
					c0,1.5,0.2,2.7,0.6,3.6c0.4,0.9,1.4,1.4,2.9,1.4h0.5v1.5H1550.1z"/>
				<path class="st1" d="M1587.6,987.4c-3.3,0-6.2-0.8-8.7-2.3s-4.4-3.6-5.8-6.3c-1.4-2.6-2.1-5.6-2.1-8.9c0-3.3,0.7-6.3,2.1-8.9
					c1.4-2.6,3.3-4.7,5.8-6.3s5.4-2.3,8.7-2.3c3.3,0,6.2,0.8,8.7,2.3c2.5,1.6,4.4,3.6,5.7,6.3s2.1,5.6,2.1,8.9
					c0,3.3-0.7,6.3-2.1,8.9s-3.3,4.7-5.7,6.3C1593.8,986.6,1590.9,987.4,1587.6,987.4z M1587.6,985.2c2,0,3.8-0.6,5.2-1.8
					c1.4-1.2,2.5-2.9,3.3-5.2c0.8-2.3,1.1-5,1.1-8.3c0-3.3-0.4-6-1.1-8.3c-0.8-2.3-1.8-4-3.3-5.2c-1.4-1.2-3.1-1.8-5.2-1.8
					c-2,0-3.7,0.6-5.1,1.8c-1.4,1.2-2.5,2.9-3.3,5.2c-0.8,2.3-1.1,5-1.1,8.3c0,3.2,0.4,6,1.1,8.3c0.8,2.3,1.8,4,3.3,5.2
					C1583.9,984.6,1585.6,985.2,1587.6,985.2z"/>
				<path class="st1" d="M1647,986.6l-21.2-24.9v24.8h-2.5v-27c0-1.3-0.3-2.3-0.9-3.2c-0.6-0.9-1.8-1.3-3.6-1.3h-0.2v-1.5h3.5
					c1.9,0,3.4,0.2,4.6,0.8c1.2,0.5,2.2,1.3,2.9,2.3l17.2,20v-23h2.5v33.2H1647z"/>
				<path class="st1" d="M1709.3,987.4c-3.5,0-6.5-0.8-9-2.3c-2.5-1.5-4.3-3.5-5.6-6.1c-1.3-2.6-1.9-5.5-1.9-8.7
					c0-2.5,0.4-4.9,1.2-7.1c0.8-2.2,2-4.1,3.5-5.7s3.3-2.9,5.3-3.8c2-0.9,4.2-1.4,6.6-1.4c3.1,0,5.7,0.4,7.6,1.2
					c1.9,0.8,3.3,1.8,4.3,2.8c0.7,0.9,1.1,2,1.2,3.4c0.1,1.4,0.2,2.8,0.2,4.3h-1.5c-0.6-3-1.8-5.4-3.5-7s-3.9-2.4-6.7-2.4
					c-2,0-3.9,0.5-5.6,1.4c-1.7,0.9-3,2.5-4,4.8c-1,2.3-1.5,5.5-1.5,9.5c0,1.9,0.2,3.7,0.6,5.5s1,3.4,1.9,4.8c0.9,1.4,2,2.5,3.4,3.3
					c1.4,0.8,3.1,1.2,5.1,1.2c2.3,0,4.4-0.6,6.4-1.8c2-1.2,3.6-3,4.8-5.3l1.8,1.4c-1.6,2.8-3.5,4.8-5.8,6.1
					C1715.7,986.8,1712.8,987.4,1709.3,987.4z"/>
				<path class="st1" d="M1756,987.4c-3.3,0-6.2-0.8-8.7-2.3s-4.4-3.6-5.8-6.3c-1.4-2.6-2.1-5.6-2.1-8.9c0-3.3,0.7-6.3,2.1-8.9
					c1.4-2.6,3.3-4.7,5.8-6.3s5.4-2.3,8.7-2.3c3.3,0,6.2,0.8,8.7,2.3c2.5,1.6,4.4,3.6,5.7,6.3s2.1,5.6,2.1,8.9
					c0,3.3-0.7,6.3-2.1,8.9s-3.3,4.7-5.7,6.3C1762.2,986.6,1759.3,987.4,1756,987.4z M1756,985.2c2,0,3.8-0.6,5.2-1.8
					c1.4-1.2,2.5-2.9,3.3-5.2c0.8-2.3,1.1-5,1.1-8.3c0-3.3-0.4-6-1.1-8.3c-0.8-2.3-1.8-4-3.3-5.2c-1.4-1.2-3.1-1.8-5.2-1.8
					c-2,0-3.7,0.6-5.1,1.8c-1.4,1.2-2.5,2.9-3.3,5.2c-0.8,2.3-1.1,5-1.1,8.3c0,3.2,0.4,6,1.1,8.3c0.8,2.3,1.8,4,3.3,5.2
					C1752.3,984.6,1754,985.2,1756,985.2z"/>
				<path class="st1" d="M1815.3,986.6l-21.2-24.9v24.8h-2.5v-27c0-1.3-0.3-2.3-0.9-3.2c-0.6-0.9-1.8-1.3-3.6-1.3h-0.2v-1.5h3.5
					c1.9,0,3.4,0.2,4.6,0.8c1.2,0.5,2.2,1.3,2.9,2.3l17.2,20v-23h2.5v33.2H1815.3z"/>
				<path class="st1" d="M1847.7,987.3c-1.4,0-2.7-0.1-4.1-0.4c-1.3-0.3-2.6-0.7-3.7-1.2c-1.1-0.5-2-1.2-2.6-1.9
					c-0.7-0.8-1-1.6-1-2.5v-5.9h1.4c0.5,3.5,1.6,5.9,3.2,7.4c1.6,1.5,3.8,2.2,6.6,2.2c1.3,0,2.4-0.2,3.3-0.6c1-0.4,1.7-0.9,2.2-1.6
					c0.5-0.7,0.8-1.6,0.8-2.7c0-1.4-0.5-2.6-1.4-3.6c-0.9-1-2.2-1.9-3.8-2.9l-6.2-3.7c-2.3-1.3-3.9-2.7-4.8-4.1
					c-0.9-1.4-1.4-3-1.4-4.9c0-2.6,1-4.7,3-6.3c2-1.5,4.7-2.3,8.2-2.3c1.4,0,2.7,0.1,4.1,0.4c1.3,0.3,2.6,0.7,3.7,1.2
					c1.1,0.5,2,1.1,2.6,1.9c0.7,0.7,1,1.6,1,2.6v5.9h-1.4c-0.6-3.5-1.6-5.9-3.2-7.4c-1.6-1.5-3.6-2.2-6.2-2.2
					c-1.2,0-2.2,0.2-3.1,0.6c-0.9,0.4-1.6,1-2,1.7c-0.5,0.7-0.7,1.6-0.7,2.6c0,1.4,0.5,2.5,1.4,3.4c1,0.9,2.2,1.8,3.8,2.7l6.2,3.7
					c2.3,1.3,3.9,2.6,5,3.9c1.1,1.3,1.6,2.8,1.6,4.7c0,2.9-1.1,5.1-3.3,6.8C1854.9,986.4,1851.8,987.3,1847.7,987.3z"/>
				<path class="st1" d="M1893,986.9c-3,0-5.5-0.6-7.5-1.7c-2-1.1-3.5-2.8-4.5-5s-1.5-5-1.5-8.3v-12.1c0-1.4-0.2-2.6-0.6-3.5
					c-0.4-0.9-1.2-1.4-2.5-1.5h-0.5v-1.5h5.5c1.2,0,2.1,0.2,2.7,0.6c0.7,0.4,1.1,1.1,1.4,2c0.3,0.9,0.4,2.2,0.4,3.9l0,13.6
					c0,3.5,0.7,6.2,2,8.2c1.3,2,3.3,3,5.9,3c2.3,0,4.1-0.5,5.6-1.4c1.4-0.9,2.5-2.3,3.2-4.2c0.7-1.9,1-4.3,1-7.2v-18.6h2.5V972
					c0,3.1-0.4,5.8-1.3,8c-0.9,2.2-2.2,3.9-4.2,5.1C1898.8,986.3,1896.2,986.9,1893,986.9z"/>
				<path class="st1" d="M1927.1,986.4v-26.5c0-1.5-0.2-2.7-0.6-3.6s-1.4-1.4-2.9-1.4h-0.5v-1.5h6c1.2,0,2.1,0.2,2.7,0.6
					c0.7,0.4,1.1,1.1,1.4,2c0.3,0.9,0.4,2.2,0.4,3.9v24.3h17.3v2.3H1927.1z"/>
				<path class="st1" d="M1969.4,986.4v-30.8h-3.6c-1.8,0-3.2,0.4-4.2,1.3c-1,0.9-1.6,2.4-1.6,4.7h-1.5v-4.3c0-0.7,0.1-1.3,0.4-1.9
					c0.2-0.6,0.7-1.1,1.3-1.5c0.6-0.4,1.5-0.6,2.6-0.6h23.5v2.3h-10.5v30.8H1969.4z"/>
				<path class="st1" d="M2027.3,986.6c-1.1,0-2.3-0.1-3.5-0.4s-2.4-0.9-3.5-1.8c-1.1-0.9-2.1-2.4-2.9-4.3l-1.2-2.8h-13.3l-4.1,9.1
					h-2.6l14.8-33h2.3l11.2,26.7c0.6,1.5,1.3,2.6,2.2,3.5c0.9,0.9,1.9,1.4,3,1.5v1.3c-0.3,0.1-0.6,0.1-1.1,0.2
					S2027.6,986.6,2027.3,986.6z M2004,975h11.3l-5.5-13.1L2004,975z"/>
				<path class="st1" d="M2069.6,986.6l-21.2-24.9v24.8h-2.5v-27c0-1.3-0.3-2.3-0.9-3.2c-0.6-0.9-1.8-1.3-3.6-1.3h-0.2v-1.5h3.5
					c1.9,0,3.4,0.2,4.6,0.8c1.2,0.5,2.2,1.3,2.9,2.3l17.2,20v-23h2.5v33.2H2069.6z"/>
				<path class="st1" d="M2106.6,987.4c-3.5,0-6.5-0.8-9-2.3c-2.5-1.5-4.3-3.5-5.6-6.1c-1.3-2.6-1.9-5.5-1.9-8.7
					c0-2.5,0.4-4.9,1.2-7.1c0.8-2.2,2-4.1,3.5-5.7s3.3-2.9,5.3-3.8c2-0.9,4.2-1.4,6.6-1.4c3.1,0,5.7,0.4,7.6,1.2
					c1.9,0.8,3.3,1.8,4.3,2.8c0.7,0.9,1.1,2,1.2,3.4c0.1,1.4,0.2,2.8,0.2,4.3h-1.5c-0.6-3-1.8-5.4-3.5-7s-3.9-2.4-6.7-2.4
					c-2,0-3.9,0.5-5.6,1.4c-1.7,0.9-3,2.5-4,4.8c-1,2.3-1.5,5.5-1.5,9.5c0,1.9,0.2,3.7,0.6,5.5s1,3.4,1.9,4.8c0.9,1.4,2,2.5,3.4,3.3
					c1.4,0.8,3.1,1.2,5.1,1.2c2.3,0,4.4-0.6,6.4-1.8c2-1.2,3.6-3,4.8-5.3l1.8,1.4c-1.6,2.8-3.5,4.8-5.8,6.1
					C2113,986.8,2110.1,987.4,2106.6,987.4z"/>
				<path class="st1" d="M2148.9,986.4v-13.2l-8.9-13.3c-0.6-0.9-1.2-1.7-2-2.5s-1.5-1.5-2.3-2.1c-0.8-0.6-1.6-0.9-2.4-1v-1h5.5
					c1.3,0,2.4,0.3,3.4,0.9s1.9,1.3,2.7,2.1c0.8,0.8,1.5,1.7,2,2.6l6.8,10.3l9.7-15.8h3.3l-11.4,18.5v14.6H2148.9z"/>
			</g>
			<g>
				<g>
					<linearGradient id="SVGID_1_" gradientUnits="userSpaceOnUse" x1="1271.8384" y1="769.2613" x2="2166.9006" y2="769.2613">
						<stop  offset="0" style="stop-color:#D39E68"/>
						<stop  offset="1" style="stop-color:#A4794D"/>
					</linearGradient>
					<path class="st0" d="M1511.1,863.9c-3.5-10.1-5.2-25.4-5.2-45.6V654.4h-43.8l-68.5,164.2l-80.9-164.2h-40.8v220.7h16.7V693.2
						l89.6,181.9h11l73.2-175.2v118.4c0,16.7,2.3,30.4,6.9,41c4.6,10.6,11.9,18.4,21.9,23.4c10,5,23.1,7.5,39.1,7.5v-8.4
						C1520.9,880,1514.5,874,1511.1,863.9z M1884.7,761.1l-41.1-24.4c-10.5-6.2-18.9-12.3-25.2-18.1c-6.4-5.8-9.5-13.4-9.5-22.7
						c0-6.7,1.6-12.4,4.7-17.2c3.1-4.8,7.6-8.5,13.5-11.2c5.9-2.7,12.9-4,20.9-4c16.9,0,30.6,4.9,41.1,14.7
						c10.5,9.8,17.6,26.3,21.4,49.5h9.4v-39.1c0-6.5-2.2-12.1-6.5-17.1c-4.3-4.9-10.2-9.1-17.6-12.5c-7.4-3.5-15.5-6.1-24.4-7.9
						c-8.9-1.8-17.9-2.7-27.1-2.7c-23,0-41.2,5.1-54.7,15.4c-13.5,10.3-20.2,24.2-20.2,41.8c0,12.3,3.1,23.1,9.4,32.4
						c6.2,9.4,16.9,18.5,32.1,27.4l41.1,24.7c10.7,6.5,19.1,12.9,25.2,19.2c6.1,6.4,9.2,14.3,9.2,23.9c0,7.1-1.7,13.1-5.2,17.9
						c-3.5,4.8-8.4,8.4-14.7,10.9c-6.4,2.5-13.8,3.7-22.2,3.7c-18.7,0-33.5-4.9-44.3-14.7c-10.8-9.8-18-26.3-21.6-49.5h-9.4v39.1
						c0,6.2,2.2,11.9,6.5,16.9c4.3,5,10.2,9.3,17.6,12.7c7.4,3.5,15.5,6.1,24.4,7.9c8.9,1.8,17.9,2.7,27.1,2.7
						c27,0,47.7-5.6,62.2-16.7c14.5-11.1,21.7-26.3,21.7-45.5c0-12.3-3.5-22.7-10.5-31.3C1911,778.7,1899.9,770,1884.7,761.1z
						 M1728.2,833l-74.9-178.5h-15l-98.6,220.7h17.4l27.4-60.9h88.9l7.7,18.7c5.3,12.7,11.8,22.2,19.2,28.4
						c7.5,6.2,15.3,10.3,23.4,12.2c8.1,1.9,15.9,2.8,23.2,2.8c2.5,0,5.3-0.2,8.5-0.5c3.2-0.3,5.7-0.7,7.5-1.2v-8.4
						c-7.6-0.9-14.3-4.2-20.1-10C1737.1,850.6,1732.2,842.8,1728.2,833z M1591.5,799.2l38.8-87.3l36.8,87.3H1591.5z M2146.8,856.4
						c-5.8-5.8-10.7-13.6-14.7-23.4l-74.9-178.5h-15l-98.6,220.7h17.4l27.4-60.9h88.9l7.7,18.7c5.3,12.7,11.8,22.2,19.2,28.4
						c7.5,6.2,15.3,10.3,23.4,12.2c8.1,1.9,15.9,2.8,23.2,2.8c2.5,0,5.3-0.2,8.5-0.5c3.2-0.3,5.7-0.7,7.5-1.2v-8.4
						C2159.3,865.5,2152.6,862.2,2146.8,856.4z M1995.4,799.2l38.8-87.3l36.8,87.3H1995.4z"/>
				</g>
			</g>
		</g>
		<g>
			<g>
				<g>
					<g>
						<g>
							
								<linearGradient id="SVGID_00000021090247057176040800000008706995274939244454_" gradientUnits="userSpaceOnUse" x1="499.899" y1="786.8849" x2="1099.693" y2="786.8849">
								<stop  offset="0" style="stop-color:#D39E68"/>
								<stop  offset="1" style="stop-color:#A4794D"/>
							</linearGradient>
							<path style="fill:url(#SVGID_00000021090247057176040800000008706995274939244454_);" d="M799.8,570.7
								c8.2-18.4,19.8-35.2,34.2-49.3c14.1-14.4,30.9-26.1,49.4-34.3c-18.5-8.2-35.2-19.9-49.4-34.3c-14.4-14.1-26.1-30.8-34.2-49.3
								c-8.2,18.4-19.8,35.2-34.2,49.3c-14.1,14.4-30.9,26.1-49.4,34.3c18.5,8.2,35.2,19.9,49.4,34.3
								C780,535.5,791.6,552.2,799.8,570.7z M892.5,582.4c-28.2,0-54.7,10.8-74.6,30.3l-0.2,0.2c-0.2,0.2-0.5,0.5-0.7,0.7l-0.2,0.2
								c-6.3,6.6-10.7,15.4-16.6,28.5c-6-13.1-10.5-21.8-17.1-28.4c-0.3-0.3-0.6-0.6-0.9-0.8l0,0c-19.2-19.5-46-30.7-73.7-30.7
								H499.9l0,322.1c-0.2,69.4,31.2,137.4,85.9,186.7c43.8,41.4,101.3,67.8,166.2,76.2c14.4,1.9,29.2,2.8,44,2.8
								c46.3,0,92.7-9.2,134.2-26.6c48.2-20.2,89-50.9,118.2-89c33.1-43.2,50.4-93.4,51.3-149.2l0-323.1H892.5z M956.9,724.3v74.2
								c-9-7.6-18.8-14.3-29.4-19.1c-21.2-9.5-54.3-14.7-92,13.8c-6.1,4.6-12.4,8.1-18.9,10.5c-18.3,6.8-27,1.5-44.8-11.1
								c-15.6-11-35-24.7-63.6-22.4c-19.9,1.6-41.1,11-65.4,29v-75.1H956.9z M927.5,899.9c-21.2-9.5-54.3-14.7-92,13.8
								c-6.1,4.6-12.4,8.1-18.9,10.5c-18.3,6.8-27,1.5-44.8-11.1c-15.6-11-35-24.7-63.6-22.4c-19.4,1.6-40.2,10.6-63.8,27.8
								c-1.1-6.1-1.7-12.2-1.6-18.3V862c29.5-27.9,52.8-42.7,69.2-44c10.8-0.9,18.9,4.4,32.2,13.8c19.5,13.8,46.3,32.7,88.9,16.9
								c10.9-4,21.4-9.8,31.2-17.3c25.4-19.2,47.4-19.4,90.6,34.5l1.9-1.6v35.4c-0.1,6.1-0.7,12-1.6,17.8
								C946.7,910.5,937.4,904.3,927.5,899.9z M936.2,964.9c-14.3,20.4-35.6,36.9-63.4,48.5c-65.8,27.5-143,17-187.9-25.7l-1.1-1
								c-7.7-6.9-14.5-14.6-20.2-22.7c19.8-16,36-24.6,48.4-25.6c10.8-0.9,18.9,4.4,32.2,13.8c19.5,13.8,46.3,32.7,88.9,16.9
								c10.9-4,21.4-9.8,31.2-17.3C885.7,935.6,904.7,932.9,936.2,964.9z M1042.5,904.8c-0.8,43.2-14.1,81.9-39.5,115.1
								c-23.1,30.1-55.9,54.7-94.9,71c-34.6,14.5-73.3,22.1-112.1,22.1c-12.3,0-24.6-0.8-36.6-2.3c-53-6.9-99.4-28-134.4-61.2
								l-0.6-0.5c-42.8-38.5-67.3-91.1-67.2-144.4V639.7h151.2c12.4,0,24.4,4.9,32.8,13.5l0.7,0.7c1.5,2.4,4.2,8.1,6.5,13.2H585.5
								l0,233.1c-0.1,47.7,21.7,94.6,59.9,128.9l0.2,0.2c30.2,28.7,70.4,47.4,116.2,53.9c11.9,1.7,23.8,2.6,35.7,2.6
								c33.3,0,66.4-6.6,97.4-19.6c36.5-15.3,65.5-37.5,86.3-66.1c20.9-28.7,32.3-63.1,32.9-99.6l0-233.5H851.7
								c2.4-5.3,5.3-11.6,7-14.2c9.1-8.5,21-13.2,33.8-13.2h150V904.8z"/>
						</g>
					</g>
				</g>
			</g>
		</g>
	</g>
</g>
</svg>
